<svg width="393" height="52" viewBox="0 0 393 52" fill="none" xmlns="http://www.w3.org/2000/svg">
<g filter="url(#filter0_i_4559_68051)">
<rect width="393" height="52" fill="white" fill-opacity="0.06"/>
<rect x="130" y="40" width="133" height="5" rx="2.5" fill="white" fill-opacity="0.12"/>
<g clip-path="url(#clip0_4559_68051)">
<path d="M151.613 27C156.032 27 159.613 23.4183 159.613 19C159.613 14.5817 156.032 11 151.613 11C147.195 11 143.613 14.5817 143.613 19C143.613 23.4183 147.195 27 151.613 27Z" fill="url(#paint0_linear_4559_68051)"/>
<path d="M151.922 14.749L152.518 16.2608C152.849 17.0991 153.512 17.7626 154.35 18.0932L155.862 18.6894C156.142 18.7997 156.142 19.1957 155.862 19.3061L154.35 19.9022C153.512 20.2328 152.849 20.8964 152.518 21.7346L151.922 23.2465C151.811 23.5264 151.415 23.5264 151.305 23.2465L150.709 21.7346C150.378 20.8964 149.715 20.2328 148.877 19.9022L147.365 19.3061C147.085 19.1957 147.085 18.7997 147.365 18.6894L148.877 18.0932C149.715 17.7626 150.378 17.0991 150.709 16.2608L151.305 14.749C151.415 14.4691 151.811 14.4691 151.922 14.749Z" fill="white"/>
<path d="M163.312 23.5V17.0711H164.387V18.0107H164.412C164.703 17.374 165.346 16.9475 166.174 16.9475C167.052 16.9475 167.701 17.3987 167.979 18.1838H168.004C168.362 17.4111 169.116 16.9475 170.019 16.9475C171.292 16.9475 172.114 17.782 172.114 19.0616V23.5H171.039V19.3088C171.039 18.4249 170.551 17.8994 169.704 17.8994C168.851 17.8994 168.251 18.5361 168.251 19.4139V23.5H167.175V19.1914C167.175 18.4125 166.656 17.8994 165.859 17.8994C165.006 17.8994 164.387 18.5732 164.387 19.4696V23.5H163.312ZM174.219 15.9831C173.848 15.9831 173.545 15.6802 173.545 15.3093C173.545 14.9322 173.848 14.6355 174.219 14.6355C174.596 14.6355 174.893 14.9322 174.893 15.3093C174.893 15.6802 174.596 15.9831 174.219 15.9831ZM173.681 23.5V17.0711H174.757V23.5H173.681ZM176.349 23.5V17.0711H177.424V18.1591H177.449C177.665 17.4173 178.222 16.9475 178.945 16.9475C179.13 16.9475 179.291 16.9784 179.378 16.9907V18.0354C179.291 18.0045 179.062 17.9736 178.803 17.9736C177.968 17.9736 177.424 18.5547 177.424 19.5314V23.5H176.349ZM182.138 23.6236C180.858 23.6236 179.999 22.8509 179.999 21.6826V21.6702C179.999 20.5761 180.852 19.8899 182.329 19.8034L184.171 19.6983V19.1605C184.171 18.3754 183.658 17.8994 182.762 17.8994C181.934 17.8994 181.414 18.2951 181.291 18.87L181.278 18.9256H180.24L180.246 18.8576C180.339 17.8005 181.26 16.9475 182.774 16.9475C184.295 16.9475 185.247 17.7696 185.247 19.0554V23.5H184.171V22.4553H184.147C183.77 23.16 182.997 23.6236 182.138 23.6236ZM181.099 21.6826C181.099 22.3008 181.606 22.6902 182.379 22.6902C183.392 22.6902 184.171 21.9917 184.171 21.0583V20.5328L182.453 20.6379C181.594 20.6874 181.099 21.0706 181.099 21.6702V21.6826ZM186.795 23.5V14.5799H187.871V18.0972H187.896C188.242 17.374 188.94 16.9475 189.899 16.9475C191.265 16.9475 192.198 18.0045 192.198 19.5623V23.5H191.123V19.7477C191.123 18.5856 190.529 17.8994 189.528 17.8994C188.532 17.8994 187.871 18.6536 187.871 19.7477V23.5H186.795ZM196.337 23.6236C194.488 23.6236 193.376 22.3317 193.376 20.3103V20.3041C193.376 18.3136 194.513 16.9475 196.269 16.9475C198.024 16.9475 199.094 18.2518 199.094 20.1805V20.5761H194.464C194.488 21.899 195.218 22.6717 196.361 22.6717C197.177 22.6717 197.752 22.2637 197.938 21.7135L197.956 21.6579H199.013L199.001 21.7197C198.791 22.7829 197.74 23.6236 196.337 23.6236ZM196.262 17.8994C195.329 17.8994 194.6 18.5361 194.482 19.7354H197.999C197.894 18.4867 197.202 17.8994 196.262 17.8994ZM200.364 23.5V14.5799H201.439V23.5H200.364ZM203.019 25.6636V17.0711H204.094V18.1591H204.119C204.521 17.4111 205.238 16.9475 206.159 16.9475C207.803 16.9475 208.891 18.258 208.891 20.2855V20.2917C208.891 22.3193 207.791 23.6236 206.178 23.6236C205.269 23.6236 204.521 23.1662 204.119 22.4244H204.094V25.6636H203.019ZM205.949 22.6717C207.086 22.6717 207.791 21.7568 207.791 20.2917V20.2855C207.791 18.8081 207.086 17.8994 205.949 17.8994C204.861 17.8994 204.088 18.8452 204.088 20.2855V20.2917C204.088 21.7259 204.867 22.6717 205.949 22.6717ZM212.387 23.6236C210.872 23.6236 209.957 22.8509 209.828 21.7011L209.821 21.6455H210.897L210.909 21.7073C211.039 22.3502 211.515 22.7273 212.393 22.7273C213.265 22.7273 213.784 22.3626 213.784 21.7815V21.7753C213.784 21.3117 213.543 21.0521 212.813 20.8728L211.793 20.6255C210.582 20.335 209.995 19.7725 209.995 18.8452V18.839C209.995 17.7325 210.965 16.9475 212.356 16.9475C213.765 16.9475 214.662 17.7696 214.742 18.8452L214.748 18.9256H213.722L213.716 18.8823C213.629 18.258 213.153 17.8438 212.356 17.8438C211.577 17.8438 211.095 18.2209 211.095 18.7896V18.7958C211.095 19.2347 211.385 19.5376 212.096 19.7107L213.116 19.9579C214.414 20.2732 214.884 20.7863 214.884 21.7011V21.7073C214.884 22.8324 213.821 23.6236 212.387 23.6236ZM216.791 23.5865C216.396 23.5865 216.086 23.2775 216.086 22.8818C216.086 22.4862 216.396 22.1771 216.791 22.1771C217.187 22.1771 217.496 22.4862 217.496 22.8818C217.496 23.2775 217.187 23.5865 216.791 23.5865ZM221.27 23.6236C219.483 23.6236 218.29 22.3317 218.29 20.2855V20.2732C218.29 18.2271 219.489 16.9475 221.263 16.9475C223.038 16.9475 224.243 18.2209 224.243 20.2732V20.2855C224.243 22.3379 223.044 23.6236 221.27 23.6236ZM221.276 22.6717C222.407 22.6717 223.143 21.7939 223.143 20.2855V20.2732C223.143 18.7649 222.401 17.8994 221.263 17.8994C220.145 17.8994 219.39 18.771 219.39 20.2732V20.2855C219.39 21.8 220.138 22.6717 221.276 22.6717ZM225.458 23.5V17.0711H226.533V17.986H226.558C226.904 17.3864 227.559 16.9475 228.536 16.9475C229.945 16.9475 230.761 17.8623 230.761 19.3274V23.5H229.686V19.519C229.686 18.4743 229.197 17.8994 228.208 17.8994C227.195 17.8994 226.533 18.6227 226.533 19.7168V23.5H225.458ZM232.316 23.5V14.5799H233.392V23.5H232.316ZM235.577 15.9831C235.206 15.9831 234.903 15.6802 234.903 15.3093C234.903 14.9322 235.206 14.6355 235.577 14.6355C235.954 14.6355 236.25 14.9322 236.25 15.3093C236.25 15.6802 235.954 15.9831 235.577 15.9831ZM235.039 23.5V17.0711H236.114V23.5H235.039ZM237.706 23.5V17.0711H238.782V17.986H238.806C239.153 17.3864 239.808 16.9475 240.785 16.9475C242.194 16.9475 243.01 17.8623 243.01 19.3274V23.5H241.934V19.519C241.934 18.4743 241.446 17.8994 240.457 17.8994C239.443 17.8994 238.782 18.6227 238.782 19.7168V23.5H237.706ZM247.155 23.6236C245.306 23.6236 244.194 22.3317 244.194 20.3103V20.3041C244.194 18.3136 245.331 16.9475 247.087 16.9475C248.842 16.9475 249.912 18.2518 249.912 20.1805V20.5761H245.282C245.306 21.899 246.036 22.6717 247.179 22.6717C247.995 22.6717 248.57 22.2637 248.756 21.7135L248.774 21.6579H249.831L249.819 21.7197C249.609 22.7829 248.558 23.6236 247.155 23.6236ZM247.08 17.8994C246.147 17.8994 245.418 18.5361 245.3 19.7354H248.817C248.712 18.4867 248.02 17.8994 247.08 17.8994Z" fill="white"/>
</g>
</g>
<defs>
<filter id="filter0_i_4559_68051" x="-20" y="-20" width="433" height="92" filterUnits="userSpaceOnUse" color-interpolation-filters="sRGB">
<feFlood flood-opacity="0" result="BackgroundImageFix"/>
<feBlend mode="normal" in="SourceGraphic" in2="BackgroundImageFix" result="shape"/>
<feColorMatrix in="SourceAlpha" type="matrix" values="0 0 0 0 0 0 0 0 0 0 0 0 0 0 0 0 0 0 127 0" result="hardAlpha"/>
<feOffset dy="0.33"/>
<feComposite in2="hardAlpha" operator="arithmetic" k2="-1" k3="1"/>
<feColorMatrix type="matrix" values="0 0 0 0 1 0 0 0 0 1 0 0 0 0 1 0 0 0 0.3 0"/>
<feBlend mode="normal" in2="shape" result="effect1_innerShadow_4559_68051"/>
</filter>
<linearGradient id="paint0_linear_4559_68051" x1="156.948" y1="15.4152" x2="143.666" y2="24.3401" gradientUnits="userSpaceOnUse">
<stop stop-color="#4EB97F"/>
<stop offset="1" stop-color="#4086DE"/>
</linearGradient>
<clipPath id="clip0_4559_68051">
<rect width="107" height="16" fill="white" transform="translate(143.613 11)"/>
</clipPath>
</defs>
</svg>
