<svg width="40" height="40" viewBox="0 0 40 40" fill="none" xmlns="http://www.w3.org/2000/svg">
<rect width="40" height="40" rx="20" fill="white" fill-opacity="0.06"/>
<path fill-rule="evenodd" clip-rule="evenodd" d="M20.801 10.2462C20.4355 10.1483 20.0599 10.3651 19.9619 10.7306L16.6271 23.1699C16.5291 23.5354 16.7461 23.9112 17.1117 24.0092L25.8023 26.3367C26.1679 26.4345 26.5435 26.2177 26.6415 25.8523L29.9763 13.4129C30.0743 13.0474 29.8573 12.6716 29.4918 12.5736L20.801 10.2462ZM14.9023 22.7074L17.1829 14.2006L10.5081 15.9882C10.1425 16.0861 9.92553 16.4619 10.0235 16.8275L13.3583 29.2667C13.4563 29.6321 13.8319 29.8491 14.1974 29.7511L22.8881 27.4237C22.8995 27.4207 22.9107 27.4174 22.9217 27.4138L16.6497 25.7341C15.3313 25.381 14.5489 24.0258 14.9023 22.7074Z" fill="white"/>
</svg>
