<svg width="20" height="20" viewBox="0 0 20 20" fill="none" xmlns="http://www.w3.org/2000/svg">
<rect width="20" height="20" rx="10" fill="white" fill-opacity="0.12"/>
<g clip-path="url(#clip0_4559_68013)">
<path d="M10.9404 7.33984L6.53872 11.7419C6.51657 11.7641 6.50058 11.7921 6.49297 11.8223L6.00508 13.7805C5.99049 13.8395 6.00781 13.9022 6.05083 13.9452C6.08338 13.9778 6.12774 13.9958 6.1731 13.9958C6.187 13.9958 6.20121 13.9941 6.21505 13.9906L8.17332 13.5026C8.20384 13.495 8.23157 13.4791 8.25372 13.4569L12.6558 9.05522L10.9404 7.33984Z" fill="white"/>
<path d="M13.7472 6.74328L13.2572 6.2533C12.9297 5.92582 12.3589 5.92614 12.0318 6.2533L11.4316 6.8535L13.147 8.56882L13.7472 7.96862C13.9107 7.8051 14.0008 7.58746 14.0008 7.35598C14.0008 7.12451 13.9107 6.90687 13.7472 6.74328Z" fill="white"/>
</g>
<defs>
<clipPath id="clip0_4559_68013">
<rect width="8" height="8" fill="white" transform="translate(6 6)"/>
</clipPath>
</defs>
</svg>
