<svg width="16" height="16" viewBox="0 0 16 16" fill="none" xmlns="http://www.w3.org/2000/svg">
<path d="M8 16C12.4183 16 16 12.4183 16 8C16 3.58172 12.4183 0 8 0C3.58172 0 0 3.58172 0 8C0 12.4183 3.58172 16 8 16Z" fill="url(#paint0_linear_4559_68088)"/>
<path d="M8.30851 3.74896L8.90467 5.26083C9.23529 6.0991 9.89881 6.76262 10.7371 7.09324L12.249 7.6894C12.5288 7.79972 12.5288 8.19575 12.249 8.30607L10.7371 8.90223C9.89881 9.23285 9.23529 9.89637 8.90467 10.7346L8.30851 12.2465C8.19819 12.5264 7.80216 12.5264 7.69185 12.2465L7.09569 10.7346C6.76506 9.89637 6.10154 9.23285 5.26327 8.90223L3.7514 8.30607C3.47154 8.19575 3.47154 7.79972 3.7514 7.6894L5.26327 7.09324C6.10154 6.76262 6.76506 6.0991 7.09569 5.26083L7.69185 3.74896C7.80216 3.4691 8.19819 3.4691 8.30851 3.74896Z" fill="white"/>
<defs>
<linearGradient id="paint0_linear_4559_68088" x1="13.3345" y1="4.41523" x2="0.0530422" y2="13.3401" gradientUnits="userSpaceOnUse">
<stop stop-color="#4EB97F"/>
<stop offset="1" stop-color="#4086DE"/>
</linearGradient>
</defs>
</svg>
