<svg width="32" height="32" viewBox="0 0 32 32" fill="none" xmlns="http://www.w3.org/2000/svg">
<rect width="32" height="32" rx="16" fill="white" fill-opacity="0.12"/>
<path d="M18 8.5C18 8.36739 17.9473 8.24021 17.8536 8.14645C17.7598 8.05268 17.6326 8 17.5 8H14.5C14.3674 8 14.2402 8.05268 14.1464 8.14645C14.0527 8.24021 14 8.36739 14 8.5C14 8.63261 13.9473 8.75979 13.8536 8.85355C13.7598 8.94732 13.6326 9 13.5 9C13.3674 9 13.2402 9.05268 13.1464 9.14645C13.0527 9.24021 13 9.36739 13 9.5V10C13 10.1326 13.0527 10.2598 13.1464 10.3536C13.2402 10.4473 13.3674 10.5 13.5 10.5H18.5C18.6326 10.5 18.7598 10.4473 18.8536 10.3536C18.9473 10.2598 19 10.1326 19 10V9.5C19 9.36739 18.9473 9.24021 18.8536 9.14645C18.7598 9.05268 18.6326 9 18.5 9C18.3674 9 18.2402 8.94732 18.1464 8.85355C18.0527 8.75979 18 8.63261 18 8.5Z" fill="white"/>
<path d="M12.085 9H11.5C11.1022 9 10.7206 9.15804 10.4393 9.43934C10.158 9.72064 10 10.1022 10 10.5V22.5C10 22.8978 10.158 23.2794 10.4393 23.5607C10.7206 23.842 11.1022 24 11.5 24H20.5C20.8978 24 21.2794 23.842 21.5607 23.5607C21.842 23.2794 22 22.8978 22 22.5V10.5C22 10.1022 21.842 9.72064 21.5607 9.43934C21.2794 9.15804 20.8978 9 20.5 9H19.915C19.971 9.15733 19.9993 9.324 20 9.5V10C20 10.3978 19.842 10.7794 19.5607 11.0607C19.2794 11.342 18.8978 11.5 18.5 11.5H13.5C13.1022 11.5 12.7206 11.342 12.4393 11.0607C12.158 10.7794 12 10.3978 12 10V9.5C12.0007 9.324 12.029 9.15733 12.085 9ZM14 16H18C18.1326 16 18.2598 16.0527 18.3536 16.1464C18.4473 16.2402 18.5 16.3674 18.5 16.5C18.5 16.6326 18.4473 16.7598 18.3536 16.8536C18.2598 16.9473 18.1326 17 18 17H14C13.8674 17 13.7402 16.9473 13.6464 16.8536C13.5527 16.7598 13.5 16.6326 13.5 16.5C13.5 16.3674 13.5527 16.2402 13.6464 16.1464C13.7402 16.0527 13.8674 16 14 16Z" fill="white"/>
</svg>
