<svg width="32" height="32" viewBox="0 0 32 32" fill="none" xmlns="http://www.w3.org/2000/svg">
<rect width="32" height="32" rx="16" fill="white" fill-opacity="0.12"/>
<g clip-path="url(#clip0_4559_68039)">
<path fill-rule="evenodd" clip-rule="evenodd" d="M15.375 10.9982C14.386 10.4442 12.536 9.41823 10.496 9.17723C9.674 9.08023 9 9.75823 9 10.5862V18.5862C9 19.4152 9.677 20.0752 10.492 20.2232C12.332 20.5572 13.863 21.4392 14.84 22.1372C15.004 22.2542 15.185 22.3422 15.375 22.4032V10.9982ZM16.625 22.4032C16.815 22.3432 16.995 22.2542 17.159 22.1382C18.136 21.4402 19.667 20.5572 21.508 20.2232C22.323 20.0752 23 19.4152 23 18.5862V10.5862C23 9.75823 22.326 9.08023 21.504 9.17823C19.464 9.42023 17.614 10.4452 16.625 10.9992V22.4042V22.4032Z" fill="white"/>
</g>
<defs>
<clipPath id="clip0_4559_68039">
<rect width="14" height="14" fill="white" transform="translate(9 9)"/>
</clipPath>
</defs>
</svg>
