<svg width="32" height="32" viewBox="0 0 32 32" fill="none" xmlns="http://www.w3.org/2000/svg">
<rect width="32" height="32" rx="16" fill="white" fill-opacity="0.12"/>
<path fill-rule="evenodd" clip-rule="evenodd" d="M16 6C16.2653 6 16.5198 6.10539 16.7074 6.29299C16.895 6.48059 17.0003 6.73503 17.0003 7.00033V8.00066H18.0007C18.266 8.00066 18.5204 8.10605 18.708 8.29365C18.8956 8.48124 19.001 8.73568 19.001 9.00099C19.7969 9.00099 20.5602 9.31716 21.123 9.87995C21.6858 10.4427 22.002 11.2061 22.002 12.002V20.0046C22.002 20.8005 21.6858 21.5638 21.123 22.1266C20.5602 22.6894 19.7969 23.0056 19.001 23.0056H18.4608C18.4211 23.5087 18.3408 24.0079 18.2207 24.4981C18.1945 24.6038 18.1658 24.7088 18.1347 24.8132L18.0527 25.0663C18.0407 25.1011 18.0284 25.1358 18.0157 25.1703L17.9587 25.3123L17.8946 25.4534C17.7726 25.683 17.566 25.8561 17.3185 25.936C17.071 26.0158 16.8022 25.9962 16.5689 25.8812C16.3357 25.7662 16.1564 25.5649 16.0691 25.32C15.9817 25.075 15.9932 24.8057 16.1011 24.5691C16.1801 24.392 16.2331 24.201 16.2801 24.0139C16.3421 23.7638 16.4082 23.4277 16.4512 23.0056H15.4248C15.3376 23.5956 15.1587 24.1684 14.8947 24.7031C14.77 24.9545 14.623 25.1943 14.4555 25.4194C14.3797 25.5227 14.2968 25.6207 14.2074 25.7125C14.0203 25.8967 13.7682 26 13.5056 26C13.243 26 12.9909 25.8967 12.8038 25.7125C12.6167 25.5282 12.5095 25.2778 12.5054 25.0152C12.5013 24.7526 12.6006 24.499 12.782 24.309C12.914 24.161 13.017 23.9849 13.1051 23.8089C13.2061 23.6048 13.3131 23.3387 13.3892 23.0056H12.999C12.2031 23.0056 11.4398 22.6894 10.877 22.1266C10.3142 21.5638 9.99805 20.8005 9.99805 20.0046V12.002C9.99805 11.2061 10.3142 10.4427 10.877 9.87995C11.4398 9.31716 12.2031 9.00099 12.999 9.00099C12.999 8.73568 13.1044 8.48124 13.292 8.29365C13.4796 8.10605 13.7341 8.00066 13.9994 8.00066H14.9997V7.00033C14.9997 6.73503 15.1051 6.48059 15.2927 6.29299C15.4803 6.10539 15.7347 6 16 6ZM14.9997 11.0016C14.4949 11.0015 14.0088 11.1921 13.6387 11.5353C13.2686 11.8785 13.0419 12.3489 13.004 12.8523L12.999 13.0023V19.0043C12.9989 19.509 13.1895 19.9952 13.5327 20.3653C13.8759 20.7354 14.3463 20.9621 14.8496 20.9999L14.9997 21.0049V11.0016ZM17.0003 11.0016V21.0049C17.2631 21.0049 17.5232 20.9532 17.766 20.8526C18.0087 20.7521 18.2292 20.6047 18.415 20.419C18.6008 20.2332 18.7482 20.0126 18.8487 19.7699C18.9493 19.5272 19.001 19.267 19.001 19.0043V13.0023C19.001 12.4717 18.7902 11.9628 18.415 11.5876C18.0398 11.2124 17.531 11.0016 17.0003 11.0016Z" fill="white"/>
</svg>
