<svg width="40" height="40" viewBox="0 0 40 40" fill="none" xmlns="http://www.w3.org/2000/svg">
<rect width="40" height="40" rx="20" fill="white"/>
<path fill-rule="evenodd" clip-rule="evenodd" d="M10.0002 17.8504C10.0002 16.2432 11.3886 15.0195 12.9071 15.0195C14.1166 15.0195 15.3457 15.7772 15.7628 16.9575C15.9272 17.4224 15.6835 17.9325 15.2186 18.0968C14.7537 18.2611 14.2436 18.0175 14.0792 17.5525C13.9435 17.1684 13.4513 16.8052 12.9071 16.8052C12.2849 16.8052 11.7859 17.3169 11.7859 17.8504C11.7859 18.2744 12.0745 18.644 12.4859 18.7469L13.6237 19.0313C14.9109 19.3531 15.8139 20.5097 15.8139 21.8365V21.9543C15.8139 23.5597 14.5125 24.8612 12.9071 24.8612C11.6975 24.8612 10.4685 24.1035 10.0513 22.9232C9.88695 22.4583 10.1306 21.9482 10.5955 21.7838C11.0605 21.6195 11.5706 21.8632 11.7349 22.3281C11.8706 22.7122 12.3628 23.0755 12.9071 23.0755C13.5263 23.0755 14.0282 22.5735 14.0282 21.9543V21.8365C14.0282 21.3291 13.6829 20.8868 13.1906 20.7637L12.0528 20.4792C10.8465 20.1777 10.0002 19.0938 10.0002 17.8504ZM24.1862 17.8504C24.1862 16.2432 25.5744 15.0195 27.093 15.0195C28.3025 15.0195 29.5316 15.7772 29.9487 16.9575C30.113 17.4224 29.8694 17.9325 29.4045 18.0968C28.9396 18.2611 28.4295 18.0175 28.2652 17.5525C28.1294 17.1684 27.6372 16.8052 27.093 16.8052C26.4708 16.8052 25.9718 17.3169 25.9718 17.8504C25.9718 18.2744 26.2604 18.644 26.6718 18.7469L27.8096 19.0313C29.0968 19.3531 29.9997 20.5097 29.9997 21.8365V21.9543C29.9997 23.5597 28.6983 24.8612 27.093 24.8612C25.8834 24.8612 24.6545 24.1035 24.2372 22.9232C24.0729 22.4583 24.3166 21.9482 24.7814 21.7838C25.2464 21.6195 25.7564 21.8632 25.9208 22.3281C26.0566 22.7122 26.5487 23.0755 27.093 23.0755C27.7122 23.0755 28.2141 22.5735 28.2141 21.9543V21.8365C28.2141 21.3291 27.8688 20.8868 27.3765 20.7637L26.2387 20.4792C25.0324 20.1777 24.1862 19.0938 24.1862 17.8504ZM18.8787 18.0458C18.8787 17.4266 19.3807 16.9246 19.9999 16.9246C20.619 16.9246 21.121 17.4266 21.121 18.0458V22.0738C21.121 22.693 20.619 23.1949 19.9999 23.1949C19.3807 23.1949 18.8787 22.693 18.8787 22.0738V18.0458ZM19.9999 15.139C18.3945 15.139 17.093 16.4404 17.093 18.0458V22.0738C17.093 23.6792 18.3945 24.9806 19.9999 24.9806C21.6052 24.9806 22.9067 23.6792 22.9067 22.0738V18.0458C22.9067 16.4404 21.6052 15.139 19.9999 15.139Z" fill="#363981"/>
</svg>
