<svg width="38" height="38" viewBox="0 0 38 38" fill="none" xmlns="http://www.w3.org/2000/svg">
<path d="M36.5 19C36.5 22.4612 35.4736 25.8446 33.5507 28.7225C31.6278 31.6003 28.8947 33.8434 25.697 35.1679C22.4993 36.4924 18.9806 36.839 15.5859 36.1637C12.1913 35.4885 9.07307 33.8218 6.62565 31.3744C4.17823 28.927 2.51151 25.8088 1.83627 22.4141C1.16102 19.0194 1.50757 15.5008 2.8321 12.3031C4.15662 9.10537 6.39963 6.37224 9.27749 4.44931C12.1553 2.52637 15.5388 1.50001 19 1.5" stroke="white" stroke-opacity="0.12" stroke-width="3"/>
<path d="M19 1.5C22.4612 1.5 25.8446 2.52636 28.7225 4.44928C31.6003 6.3722 33.8434 9.10532 35.1679 12.303C36.4924 15.5007 36.839 19.0194 36.1637 22.4141C35.4885 25.8087 33.8218 28.9269 31.3744 31.3744C28.927 33.8218 25.8088 35.4885 22.4141 36.1637C19.0194 36.839 15.5008 36.4924 12.3031 35.1679C9.10537 33.8434 6.37224 31.6004 4.44931 28.7225C2.52638 25.8447 1.50001 22.4612 1.5 19" stroke="#4EB97F" stroke-width="3" stroke-linecap="round"/>
</svg>
