<svg width="24" height="24" viewBox="0 0 24 24" fill="none" xmlns="http://www.w3.org/2000/svg">
<g clip-path="url(#clip0_4549_43636)">
<path fill-rule="evenodd" clip-rule="evenodd" d="M10.7626 7.01256C11.0907 6.68437 11.5359 6.5 12 6.5C12.4641 6.5 12.9093 6.68437 13.2374 7.01256C13.4448 7.21993 13.5947 7.47397 13.677 7.75H10.3229C10.4052 7.47397 10.5552 7.21993 10.7626 7.01256ZM8.78868 7.75C8.89405 7.07321 9.21153 6.44227 9.7019 5.9519C10.3114 5.34241 11.1381 5 12 5C12.8619 5 13.6886 5.34241 14.2981 5.9519C14.7885 6.44227 15.106 7.07321 15.2113 7.75H18C18.4142 7.75 18.75 8.08579 18.75 8.5C18.75 8.91422 18.4142 9.25 18 9.25H17V17.5C17 17.8978 16.842 18.2794 16.5607 18.5607C16.2794 18.842 15.8978 19 15.5 19H8.5C8.10217 19 7.72064 18.842 7.43934 18.5607C7.15804 18.2794 7 17.8978 7 17.5V9.25H6C5.58579 9.25 5.25 8.91422 5.25 8.5C5.25 8.08579 5.58579 7.75 6 7.75H8.78868ZM10 10.8765C10.3452 10.8765 10.625 11.1563 10.625 11.5015V15.503C10.625 15.8481 10.3452 16.128 10 16.128C9.65482 16.128 9.375 15.8481 9.375 15.503V11.5015C9.375 11.1563 9.65482 10.8765 10 10.8765ZM14.625 11.5015C14.625 11.1563 14.3452 10.8765 14 10.8765C13.6548 10.8765 13.375 11.1563 13.375 11.5015V15.503C13.375 15.8481 13.6548 16.128 14 16.128C14.3452 16.128 14.625 15.8481 14.625 15.503V11.5015Z" fill="white"/>
</g>
<defs>
<clipPath id="clip0_4549_43636">
<rect width="14" height="14" fill="white" transform="translate(5 5)"/>
</clipPath>
</defs>
</svg>
