<svg width="40" height="40" viewBox="0 0 40 40" fill="none" xmlns="http://www.w3.org/2000/svg">
<rect width="40" height="40" rx="20" fill="white" fill-opacity="0.12"/>
<path d="M20.125 21.875C19.2083 21.875 18.4583 21.5834 17.875 21C17.2917 20.4167 17 19.6667 17 18.75C17 17.8334 17.2917 17.0834 17.875 16.5C18.4583 15.9167 19.2083 15.625 20.125 15.625C21.0417 15.625 21.7917 15.9167 22.375 16.5C22.9583 17.0834 23.25 17.8334 23.25 18.75C23.25 19.6667 22.9583 20.4167 22.375 21C21.7917 21.5834 21.0417 21.875 20.125 21.875ZM13.4583 26.6042C13.4583 26.0764 13.5903 25.6285 13.8542 25.2604C14.1181 24.8924 14.4583 24.6042 14.875 24.3959C15.5833 24.0347 16.4201 23.7361 17.3854 23.5C18.3507 23.2639 19.2639 23.1459 20.125 23.1459C20.9861 23.1459 21.8958 23.2639 22.8542 23.5C23.8125 23.7361 24.6458 24.0347 25.3542 24.3959C25.7708 24.6042 26.1146 24.8924 26.3854 25.2604C26.6563 25.6285 26.7917 26.0764 26.7917 26.6042V27.3125C26.7917 27.6563 26.6693 27.9505 26.4246 28.1952C26.1797 28.4401 25.8854 28.5625 25.5417 28.5625H14.7083C14.3646 28.5625 14.0703 28.4401 13.8256 28.1952C13.5808 27.9505 13.4583 27.6563 13.4583 27.3125V26.6042ZM12.9975 13.9704C12.7301 14.2397 12.4202 14.4508 12.0677 14.6037C11.7153 14.7568 11.3386 14.8333 10.9375 14.8333C10.7604 14.8333 10.612 14.7731 10.4923 14.6525C10.3724 14.5321 10.3125 14.3828 10.3125 14.2046C10.3125 14.0265 10.3724 13.8785 10.4923 13.7604C10.612 13.6424 10.7604 13.5833 10.9375 13.5833C11.1736 13.5833 11.3889 13.5376 11.5833 13.4462C11.7778 13.3549 11.9514 13.2318 12.1042 13.0771C12.2569 12.9224 12.375 12.7466 12.4583 12.5498C12.5417 12.3528 12.5833 12.1349 12.5833 11.8958C12.5833 11.7174 12.6465 11.5651 12.7729 11.439C12.8994 11.313 13.0522 11.25 13.2313 11.25C13.4104 11.25 13.559 11.313 13.6771 11.439C13.7951 11.5651 13.8542 11.7174 13.8542 11.8958C13.8542 12.2997 13.7782 12.6792 13.6263 13.0342C13.4744 13.389 13.2649 13.7011 12.9975 13.9704ZM15.0833 16.0417C14.5555 16.5694 13.9373 16.9861 13.2285 17.2917C12.5199 17.5972 11.7563 17.75 10.9375 17.75C10.7604 17.75 10.612 17.6897 10.4923 17.5692C10.3724 17.4488 10.3125 17.2994 10.3125 17.1213C10.3125 16.9432 10.3724 16.7951 10.4923 16.6771C10.612 16.559 10.7604 16.5 10.9375 16.5C11.5764 16.5 12.1751 16.3792 12.7335 16.1377C13.292 15.8961 13.7767 15.5654 14.1875 15.1458C14.6042 14.7292 14.9305 14.2431 15.1667 13.6875C15.4028 13.1319 15.5208 12.5347 15.5208 11.8958C15.5208 11.7174 15.584 11.5651 15.7104 11.439C15.837 11.313 15.9897 11.25 16.1688 11.25C16.3479 11.25 16.4965 11.313 16.6146 11.439C16.7326 11.5651 16.7917 11.7174 16.7917 11.8958C16.7917 12.7024 16.6389 13.463 16.3333 14.1777C16.0278 14.8926 15.6111 15.5139 15.0833 16.0417ZM25.1458 16.0417C24.618 15.5139 24.2014 14.8958 23.8958 14.1875C23.5903 13.4792 23.4375 12.7153 23.4375 11.8958C23.4375 11.7174 23.5007 11.5651 23.6271 11.439C23.7536 11.313 23.9064 11.25 24.0854 11.25C24.2646 11.25 24.4132 11.313 24.5313 11.439C24.6493 11.5651 24.7083 11.7174 24.7083 11.8958C24.7083 12.5331 24.8273 13.1289 25.0652 13.6833C25.303 14.2378 25.6285 14.7253 26.0417 15.1458C26.4618 15.559 26.9488 15.8845 27.5027 16.1223C28.0565 16.3602 28.6528 16.4861 29.2917 16.5C29.4688 16.5 29.6172 16.5603 29.7371 16.6809C29.8568 16.8013 29.9167 16.9506 29.9167 17.1288C29.9167 17.3068 29.8568 17.4549 29.7371 17.5729C29.6172 17.691 29.4688 17.75 29.2917 17.75C28.4729 17.75 27.7093 17.5972 27.0006 17.2917C26.2919 16.9861 25.6736 16.5694 25.1458 16.0417ZM27.23 13.9556C26.9624 13.6883 26.7525 13.3784 26.6004 13.026C26.4485 12.6735 26.3664 12.2968 26.3542 11.8958C26.3542 11.7174 26.4174 11.5651 26.5438 11.439C26.6703 11.313 26.823 11.25 27.0021 11.25C27.1813 11.25 27.3299 11.313 27.4479 11.439C27.566 11.5651 27.625 11.7174 27.625 11.8958C27.625 12.1319 27.6701 12.3472 27.7604 12.5417C27.8507 12.7361 27.9722 12.9097 28.125 13.0625C28.2778 13.2153 28.4514 13.3368 28.6458 13.4271C28.8403 13.5174 29.0555 13.5625 29.2917 13.5625C29.4688 13.5625 29.6172 13.6228 29.7371 13.7433C29.8568 13.8637 29.9167 14.0131 29.9167 14.1912C29.9167 14.3693 29.8568 14.5174 29.7371 14.6354C29.6172 14.7535 29.4688 14.8125 29.2917 14.8125C28.8903 14.8125 28.5132 14.7365 28.1604 14.5846C27.8076 14.4326 27.4975 14.223 27.23 13.9556Z" fill="white"/>
</svg>
