<svg width="40" height="40" viewBox="0 0 40 40" fill="none" xmlns="http://www.w3.org/2000/svg">
<rect width="40" height="40" rx="20" fill="white" fill-opacity="0.12"/>
<path d="M20 15.6249C22.1429 15.6249 23.5121 17.3914 24.115 18.8341C24.7992 20.4712 26.492 21.5529 28.8854 21.8149C29.5716 21.89 30.0676 22.5082 29.9925 23.1944C29.9172 23.8803 29.3004 24.3751 28.6144 24.3002C26.1448 24.03 23.8576 22.989 22.5 21.0521V24.5151L27.1495 26.0653C28.1045 26.3837 28.7495 27.2779 28.7499 28.2846C28.7496 29.5765 27.7018 30.6246 26.4098 30.6246H16.471L21.4526 28.1344C21.9152 27.9028 22.1025 27.3401 21.8714 26.8772C21.6399 26.4143 21.077 26.226 20.614 26.4572L12.6625 30.4318C11.8321 30.0724 11.2503 29.2468 11.2502 28.2846C11.2506 27.2781 11.8956 26.3838 12.8505 26.0653L17.5001 24.5151V21.0533C16.1424 22.9898 13.8549 24.03 11.3857 24.3002C10.6998 24.375 10.0828 23.8803 10.0075 23.1944C9.93243 22.5082 10.4285 21.8902 11.1147 21.8149C13.508 21.5529 15.2009 20.4712 15.8851 18.8341C16.4879 17.3914 17.8573 15.625 20 15.6249ZM20 9.375C21.3807 9.375 22.5 10.4943 22.5 11.875C22.5 13.2556 21.3807 14.3749 20 14.3749C18.6194 14.3748 17.5001 13.2556 17.5001 11.875C17.5001 10.4943 18.6194 9.3751 20 9.375Z" fill="white"/>
</svg>
