<svg width="40" height="40" viewBox="0 0 40 40" fill="none" xmlns="http://www.w3.org/2000/svg">
<rect width="40" height="40" rx="20" fill="white" fill-opacity="0.12"/>
<g clip-path="url(#clip0_4543_40243)">
<path fill-rule="evenodd" clip-rule="evenodd" d="M17.5507 10.762C16.9683 10.6859 16.145 10.625 15 10.625C13.855 10.625 13.0317 10.6859 12.4493 10.762C11.4079 10.8979 10.742 11.7264 10.6822 12.711C10.6501 13.2396 10.625 13.9791 10.625 15C10.625 16.021 10.6501 16.7604 10.6822 17.289C10.742 18.2736 11.4079 19.1021 12.4493 19.238C13.0317 19.314 13.855 19.375 15 19.375C16.145 19.375 16.9683 19.314 17.5507 19.238C18.5921 19.1021 19.258 18.2736 19.3178 17.289C19.3499 16.7604 19.375 16.021 19.375 15C19.375 13.9791 19.3499 13.2396 19.3178 12.711C19.258 11.7264 18.5921 10.8979 17.5507 10.762ZM15 20.625C12.5838 20.625 10.625 22.5837 10.625 25C10.625 27.4162 12.5838 29.375 15 29.375C17.4162 29.375 19.375 27.4162 19.375 25C19.375 22.5837 17.4162 20.625 15 20.625ZM20.8333 22.0833C20.8333 21.6231 21.2064 21.25 21.6667 21.25H28.3333C28.7936 21.25 29.1667 21.6231 29.1667 22.0833C29.1667 22.5436 28.7936 22.9167 28.3333 22.9167H21.6667C21.2064 22.9167 20.8333 22.5436 20.8333 22.0833ZM21.6667 24.1667C21.2064 24.1667 20.8333 24.5397 20.8333 25C20.8333 25.4602 21.2064 25.8333 21.6667 25.8333H28.3333C28.7936 25.8333 29.1667 25.4602 29.1667 25C29.1667 24.5397 28.7936 24.1667 28.3333 24.1667H21.6667ZM20.8333 27.9167C20.8333 27.4564 21.2064 27.0833 21.6667 27.0833H28.3333C28.7936 27.0833 29.1667 27.4564 29.1667 27.9167C29.1667 28.3769 28.7936 28.75 28.3333 28.75H21.6667C21.2064 28.75 20.8333 28.3769 20.8333 27.9167ZM23.6637 11.4379C24.3513 10.5623 25.6361 10.562 26.3239 11.4375C26.7998 12.0433 27.4137 12.8962 28.0143 13.9364C28.6146 14.9761 29.0462 15.9337 29.333 16.6485C29.7477 17.682 29.105 18.795 28.0027 18.9526C27.2402 19.0617 26.1948 19.1667 24.9941 19.1667C23.7933 19.1667 22.7481 19.0617 21.9857 18.9526C20.8835 18.7949 20.2409 17.6822 20.6554 16.6488C20.942 15.934 21.3736 14.9762 21.974 13.9364C22.5745 12.8964 23.1881 12.0436 23.6637 11.4379Z" fill="white"/>
</g>
<defs>
<clipPath id="clip0_4543_40243">
<rect width="20" height="20" fill="white" transform="translate(10 10)"/>
</clipPath>
</defs>
</svg>
