<svg width="40" height="40" viewBox="0 0 40 40" fill="none" xmlns="http://www.w3.org/2000/svg">
<rect width="40" height="40" rx="20" fill="white" fill-opacity="0.12"/>
<path fill-rule="evenodd" clip-rule="evenodd" d="M19.6875 12.1875C19.6875 11.6697 20.1072 11.25 20.625 11.25C21.4538 11.25 22.2487 11.5792 22.8347 12.1653C23.4208 12.7513 23.75 13.5462 23.75 14.375C23.75 15.2038 23.4208 15.9987 22.8347 16.5847C22.2487 17.1708 21.4538 17.5 20.625 17.5H12.1875C11.6697 17.5 11.25 17.0803 11.25 16.5625C11.25 16.0447 11.6697 15.625 12.1875 15.625H20.625C20.9565 15.625 21.2745 15.4933 21.5089 15.2589C21.7433 15.0245 21.875 14.7065 21.875 14.375C21.875 14.0435 21.7433 13.7255 21.5089 13.4911C21.2745 13.2567 20.9565 13.125 20.625 13.125C20.1072 13.125 19.6875 12.7053 19.6875 12.1875ZM13.75 20C13.75 19.4822 14.1697 19.0625 14.6875 19.0625H25.625C26.4537 19.0625 27.2486 19.3917 27.8348 19.9778C28.4208 20.5638 28.75 21.3587 28.75 22.1875C28.75 23.0163 28.4208 23.8111 27.8348 24.3973C27.2486 24.9833 26.4537 25.3125 25.625 25.3125C25.1072 25.3125 24.6875 24.8928 24.6875 24.375C24.6875 23.8572 25.1072 23.4375 25.625 23.4375C25.9565 23.4375 26.2745 23.3058 26.5089 23.0714C26.7432 22.837 26.875 22.519 26.875 22.1875C26.875 21.856 26.7432 21.538 26.5089 21.3036C26.2745 21.0692 25.9565 20.9375 25.625 20.9375H14.6875C14.1697 20.9375 13.75 20.5178 13.75 20ZM13.4375 22.5C12.9197 22.5 12.5 22.9197 12.5 23.4375C12.5 23.9553 12.9197 24.375 13.4375 24.375H20.3125C20.644 24.375 20.962 24.5068 21.1964 24.7411C21.4308 24.9755 21.5625 25.2935 21.5625 25.625C21.5625 25.9565 21.4308 26.2745 21.1964 26.5089C20.962 26.7432 20.644 26.875 20.3125 26.875C19.7947 26.875 19.375 27.2947 19.375 27.8125C19.375 28.3303 19.7947 28.75 20.3125 28.75C21.1413 28.75 21.9362 28.4208 22.5222 27.8348C23.1083 27.2486 23.4375 26.4537 23.4375 25.625C23.4375 24.7963 23.1083 24.0014 22.5222 23.4153C21.9362 22.8292 21.1413 22.5 20.3125 22.5H13.4375Z" fill="white"/>
</svg>
