<svg width="38" height="38" viewBox="0 0 38 38" fill="none" xmlns="http://www.w3.org/2000/svg">
<rect width="38" height="38" rx="8" fill="white" fill-opacity="0.12"/>
<path d="M29.3156 8.92638C29.2501 8.8545 29.1709 8.79667 29.0825 8.75633C28.9941 8.71596 28.8985 8.69395 28.8014 8.69161C28.7043 8.68928 28.6077 8.70666 28.5174 8.74268C28.4272 8.77874 28.3453 8.83269 28.2765 8.90129L27.7229 9.45217C27.6558 9.5193 27.6182 9.6103 27.6182 9.70522C27.6182 9.80015 27.6558 9.89115 27.7229 9.95828L28.2304 10.4649C28.2636 10.4983 28.3032 10.5248 28.3467 10.5429C28.3903 10.561 28.4369 10.5703 28.4841 10.5703C28.5313 10.5703 28.5779 10.561 28.6215 10.5429C28.665 10.5248 28.7046 10.4983 28.7378 10.4649L29.2775 9.92784C29.5505 9.65535 29.576 9.21146 29.3156 8.92638Z" fill="white"/>
<path d="M26.6034 10.5707L18.5234 18.6363C18.4745 18.6851 18.4388 18.7458 18.42 18.8123L18.0463 19.9254C18.0373 19.9557 18.0367 19.9877 18.0445 20.0182C18.0522 20.0488 18.0681 20.0766 18.0903 20.0989C18.1126 20.1212 18.1405 20.1371 18.171 20.1448C18.2015 20.1525 18.2336 20.1519 18.2638 20.143L19.3761 19.7692C19.4427 19.7505 19.5032 19.7148 19.552 19.6658L27.6176 11.585C27.6923 11.5095 27.7342 11.4077 27.7342 11.3016C27.7342 11.1956 27.6923 11.0937 27.6176 11.0183L27.1723 10.5707C27.0968 10.4954 26.9945 10.4531 26.8879 10.4531C26.7813 10.4531 26.6789 10.4954 26.6034 10.5707Z" fill="white"/>
<path d="M26.0219 15.2097L20.5661 20.6762C20.3552 20.8876 20.0961 21.0444 19.811 21.1332L18.6518 21.5213C18.3766 21.599 18.0858 21.6019 17.8091 21.5298C17.5325 21.4576 17.2801 21.313 17.078 21.1109C16.8758 20.9087 16.7312 20.6563 16.6591 20.3797C16.587 20.1031 16.5899 19.8122 16.6676 19.5371L17.0557 18.3778C17.1441 18.0929 17.3007 17.8337 17.5118 17.6227L22.9782 12.1661C23.0283 12.1161 23.0624 12.0522 23.0763 11.9828C23.0902 11.9133 23.0832 11.8413 23.0561 11.7759C23.029 11.7105 22.9831 11.6545 22.9243 11.6151C22.8654 11.5758 22.7961 11.5547 22.7253 11.5547H13.3845C12.7197 11.5547 12.0822 11.8187 11.6121 12.2888C11.142 12.7589 10.8779 13.3965 10.8779 14.0612V24.8035C10.8779 25.4683 11.142 26.1058 11.6121 26.5759C12.0822 27.046 12.7197 27.31 13.3845 27.31H24.1267C24.7915 27.31 25.4291 27.046 25.8992 26.5759C26.3692 26.1058 26.6333 25.4683 26.6333 24.8035V15.4626C26.6332 15.3918 26.6122 15.3226 26.5729 15.2637C26.5335 15.2049 26.4775 15.159 26.4121 15.1319C26.3467 15.1048 26.2746 15.0978 26.2051 15.1116C26.1357 15.1255 26.072 15.1597 26.0219 15.2097Z" fill="white"/>
</svg>
