<svg width="32" height="16" viewBox="0 0 32 16" fill="none" xmlns="http://www.w3.org/2000/svg">
<path fill-rule="evenodd" clip-rule="evenodd" d="M0.000389252 4.52938C0.000389252 1.95784 2.22168 0 4.6513 0C6.58654 0 8.55304 1.21222 9.22054 3.10074C9.48346 3.84458 9.09358 4.66074 8.34971 4.92366C7.60587 5.18658 6.78971 4.79669 6.52679 4.05282C6.30956 3.43821 5.52216 2.85706 4.6513 2.85706C3.65578 2.85706 2.85745 3.67583 2.85745 4.52938C2.85745 5.20783 3.3192 5.79922 3.97738 5.96377L5.79794 6.41891C7.85743 6.93377 9.30221 8.78422 9.30221 10.9071V11.0956C9.30221 13.6643 7.21994 15.7467 4.6513 15.7467C2.71606 15.7467 0.74954 14.5343 0.0820448 12.6458C-0.180872 11.902 0.209008 11.0858 0.952867 10.8229C1.69673 10.56 2.51289 10.9499 2.77581 11.6937C2.99304 12.3083 3.78044 12.8895 4.6513 12.8895C5.64201 12.8895 6.44515 12.0864 6.44515 11.0956V10.9071C6.44515 10.0952 5.89261 9.38758 5.10502 9.19067L3.28443 8.73553C1.35438 8.25303 0.000389252 6.51886 0.000389252 4.52938ZM22.6979 4.52938C22.6979 1.95784 24.9191 0 27.3487 0C29.284 0 31.2506 1.21222 31.918 3.10074C32.1808 3.84458 31.7911 4.66074 31.0471 4.92366C30.3034 5.18658 29.4872 4.79669 29.2243 4.05282C29.007 3.43821 28.2196 2.85706 27.3487 2.85706C26.3533 2.85706 25.5549 3.67583 25.5549 4.52938C25.5549 5.20783 26.0166 5.79922 26.6749 5.96377L28.4954 6.41891C30.5548 6.93377 31.9996 8.78422 31.9996 10.9071V11.0956C31.9996 13.6643 29.9173 15.7467 27.3487 15.7467C25.4135 15.7467 23.4471 14.5343 22.7795 12.6458C22.5166 11.902 22.9066 11.0858 23.6503 10.8229C24.3943 10.56 25.2103 10.9499 25.4733 11.6937C25.6905 12.3083 26.4779 12.8895 27.3487 12.8895C28.3396 12.8895 29.1425 12.0864 29.1425 11.0956V10.9071C29.1425 10.0952 28.5901 9.38758 27.8024 9.19067L25.9819 8.73553C24.0519 8.25303 22.6979 6.51886 22.6979 4.52938ZM14.2059 4.84204C14.2059 3.85132 15.009 3.04819 15.9998 3.04819C16.9905 3.04819 17.7936 3.85132 17.7936 4.84204V11.2868C17.7936 12.2775 16.9905 13.0806 15.9998 13.0806C15.009 13.0806 14.2059 12.2775 14.2059 11.2868V4.84204ZM15.9998 0.191126C13.4311 0.191126 11.3489 2.2734 11.3489 4.84204V11.2868C11.3489 13.8554 13.4311 15.9377 15.9998 15.9377C18.5684 15.9377 20.6507 13.8554 20.6507 11.2868V4.84204C20.6507 2.2734 18.5684 0.191126 15.9998 0.191126Z" fill="white"/>
</svg>
