<svg width="24" height="24" viewBox="0 0 24 24" fill="none" xmlns="http://www.w3.org/2000/svg">
<path d="M8.5376 5.25629C8.8793 4.91457 9.4332 4.91457 9.7749 5.25629C10.1166 5.598 10.1166 6.15189 9.7749 6.49359L7.9873 8.28119H14.1875C16.8454 8.28119 19 10.4358 19 13.0937C19 15.7515 16.8453 17.9062 14.1875 17.9062H8.5C8.01677 17.9062 7.62503 17.5144 7.625 17.0312C7.625 16.5479 8.01675 16.1562 8.5 16.1562H14.1875C15.8789 16.1562 17.25 14.7851 17.25 13.0937C17.25 11.4023 15.8789 10.0312 14.1875 10.0312H7.9873L9.7749 11.8188C10.1166 12.1605 10.1166 12.7144 9.7749 13.0561C9.43321 13.3977 8.87929 13.3977 8.5376 13.0561L5.25635 9.77484C5.2291 9.7476 5.20491 9.71826 5.18201 9.68854C5.16995 9.67287 5.15796 9.65717 5.14697 9.64068C5.12349 9.60549 5.10329 9.56884 5.08545 9.53131C5.06696 9.49248 5.05027 9.45255 5.0376 9.41083C5.03316 9.39619 5.03014 9.38119 5.02649 9.36639C5.00984 9.29898 5.00001 9.22874 5 9.15619C5 9.08647 5.00852 9.01868 5.02392 8.95367C5.02818 8.93569 5.03218 8.91757 5.0376 8.89984C5.05064 8.85718 5.06805 8.81641 5.08716 8.7768C5.10392 8.74197 5.12276 8.70791 5.14441 8.67511C5.17712 8.62553 5.21452 8.57937 5.25635 8.53753L8.5376 5.25629Z" fill="white"/>
</svg>
