<svg width="393" height="62" viewBox="0 0 393 62" fill="none" xmlns="http://www.w3.org/2000/svg">
<path d="M296.674 26.168C296.122 26.168 295.674 26.6157 295.674 27.168V37.5013C295.674 38.0536 296.122 38.5013 296.674 38.5013H298.007C298.559 38.5013 299.007 38.0536 299.007 37.5013V27.168C299.007 26.6157 298.559 26.168 298.007 26.168H296.674Z" fill="white"/>
<path d="M290.34 29.8346C290.34 29.2824 290.788 28.8346 291.34 28.8346H292.674C293.226 28.8346 293.674 29.2824 293.674 29.8346V37.5013C293.674 38.0536 293.226 38.5013 292.674 38.5013H291.34C290.788 38.5013 290.34 38.0536 290.34 37.5013V29.8346Z" fill="white"/>
<path d="M286.007 31.5013C285.455 31.5013 285.007 31.949 285.007 32.5013V37.5013C285.007 38.0536 285.455 38.5013 286.007 38.5013H287.34C287.893 38.5013 288.34 38.0536 288.34 37.5013V32.5013C288.34 31.949 287.893 31.5013 287.34 31.5013H286.007Z" fill="white"/>
<path d="M280.674 33.8346C280.122 33.8346 279.674 34.2823 279.674 34.8346V37.5013C279.674 38.0536 280.122 38.5013 280.674 38.5013H282.007C282.559 38.5013 283.007 38.0536 283.007 37.5013V34.8346C283.007 34.2824 282.559 33.8346 282.007 33.8346H280.674Z" fill="white"/>
<path fill-rule="evenodd" clip-rule="evenodd" d="M314.838 28.7294C317.304 28.7295 319.676 29.6871 321.464 31.4044C321.599 31.537 321.814 31.5353 321.946 31.4007L323.233 30.0885C323.3 30.0202 323.338 29.9276 323.337 29.8314C323.337 29.7351 323.298 29.6431 323.23 29.5756C318.538 25.0321 311.136 25.0321 306.444 29.5756C306.376 29.643 306.338 29.7351 306.337 29.8313C306.337 29.9276 306.374 30.0201 306.441 30.0885L307.728 31.4007C307.861 31.5355 308.076 31.5372 308.21 31.4044C309.998 29.687 312.371 28.7294 314.838 28.7294ZM314.838 32.9985C316.193 32.9984 317.5 33.5074 318.504 34.4265C318.64 34.557 318.854 34.5541 318.987 34.4201L320.272 33.1079C320.34 33.0391 320.377 32.9457 320.376 32.8487C320.375 32.7517 320.336 32.6591 320.267 32.5917C317.208 29.7164 312.47 29.7164 309.411 32.5917C309.342 32.6591 309.303 32.7517 309.302 32.8488C309.301 32.9458 309.339 33.0392 309.406 33.1079L310.691 34.4201C310.824 34.5541 311.038 34.557 311.174 34.4265C312.178 33.508 313.483 32.999 314.838 32.9985ZM317.412 35.8707C317.414 35.968 317.376 36.0618 317.308 36.13L315.084 38.3971C315.019 38.4637 314.93 38.5012 314.838 38.5012C314.745 38.5012 314.656 38.4637 314.591 38.3971L312.367 36.13C312.299 36.0618 312.261 35.9679 312.263 35.8707C312.265 35.7734 312.307 35.6812 312.378 35.616C313.798 34.4025 315.877 34.4025 317.297 35.616C317.369 35.6813 317.41 35.7734 317.412 35.8707Z" fill="white"/>
<rect x="332.667" y="27.8281" width="21" height="9" rx="2.66667" fill="white"/>
<g opacity="0.4">
<path fill-rule="evenodd" clip-rule="evenodd" d="M349.186 25.832H337.148C336.233 25.832 335.519 25.832 334.945 25.8713C334.361 25.911 333.884 25.9929 333.445 26.1746C332.343 26.6313 331.467 27.5073 331.01 28.61C330.828 29.0486 330.746 29.5261 330.706 30.1094C330.667 30.6842 330.667 31.3971 330.667 32.313V32.3508C330.667 33.2667 330.667 33.9799 330.706 34.5547C330.746 35.138 330.828 35.6155 331.01 36.0541C331.467 37.1567 332.343 38.0328 333.445 38.4895C333.884 38.6712 334.361 38.753 334.945 38.7928C335.519 38.832 336.232 38.832 337.148 38.832H349.186C350.102 38.832 350.815 38.832 351.39 38.7928C351.973 38.753 352.451 38.6712 352.889 38.4895C353.992 38.0328 354.868 37.1567 355.325 36.0541C355.506 35.6155 355.588 35.138 355.628 34.5547C355.667 33.9798 355.667 33.2668 355.667 32.3508V32.3133C355.667 31.3973 355.667 30.6842 355.628 30.1094C355.588 29.5261 355.506 29.0486 355.325 28.61C354.868 27.5073 353.992 26.6313 352.889 26.1746C352.451 25.9929 351.973 25.911 351.39 25.8713C350.815 25.832 350.102 25.832 349.186 25.832ZM333.828 27.0985C334.124 26.9757 334.48 26.9053 335.013 26.8689C335.55 26.8323 336.229 26.832 337.167 26.832H349.167C350.106 26.832 350.785 26.8323 351.322 26.8689C351.854 26.9053 352.21 26.9757 352.507 27.0985C353.364 27.4537 354.046 28.135 354.401 28.9926C354.524 29.2891 354.594 29.6451 354.63 30.1774C354.667 30.7143 354.667 31.3933 354.667 32.332C354.667 33.2708 354.667 33.9498 354.63 34.4866C354.594 35.019 354.524 35.375 354.401 35.6714C354.046 36.529 353.364 37.2104 352.507 37.5656C352.21 37.6884 351.854 37.7588 351.322 37.7951C350.785 37.8318 350.106 37.832 349.167 37.832H337.167C336.229 37.832 335.55 37.8318 335.013 37.7951C334.48 37.7588 334.124 37.6884 333.828 37.5656C332.97 37.2104 332.289 36.529 331.934 35.6714C331.811 35.375 331.74 35.019 331.704 34.4866C331.668 33.9498 331.667 33.2708 331.667 32.332C331.667 31.3933 331.668 30.7143 331.704 30.1774C331.74 29.6451 331.811 29.2891 331.934 28.9926C332.289 28.135 332.97 27.4537 333.828 27.0985Z" fill="white"/>
<path d="M356.667 30.3313C357.45 30.6578 358.001 31.4306 358.001 32.3319C358.001 33.2332 357.45 34.006 356.667 34.3325V30.3313Z" fill="white"/>
</g>
<path d="M64.4433 26.0386C67.2157 26.0386 69.3905 28.0142 69.3905 32.2227V32.2393C69.3905 36.2485 67.4979 38.6309 64.4267 38.6309C62.1107 38.6309 60.3925 37.2612 60.0189 35.3853L60.0023 35.3105H62.4594L62.4843 35.3853C62.7748 36.1323 63.4555 36.6387 64.4184 36.6387C66.1532 36.6387 66.9169 34.937 67.0082 32.7539C67.0082 32.6709 67.0082 32.5796 67.0082 32.4883H66.8422C66.4105 33.4097 65.4145 34.2397 63.7543 34.2397C61.4218 34.2397 59.8529 32.5796 59.8529 30.3135V30.2969C59.8529 27.8481 61.7455 26.0386 64.4433 26.0386ZM64.4433 32.3887C65.6801 32.3887 66.6347 31.5088 66.6347 30.272V30.2554C66.6347 29.002 65.6801 28.0308 64.4599 28.0308C63.2479 28.0308 62.2768 28.9854 62.2768 30.2056V30.2222C62.2768 31.4839 63.1898 32.3887 64.4433 32.3887ZM72.8587 30.77C72.012 30.77 71.3978 30.1475 71.3978 29.334C71.3978 28.5122 72.012 27.8896 72.8587 27.8896C73.7137 27.8896 74.3196 28.5122 74.3196 29.334C74.3196 30.1475 73.7137 30.77 72.8587 30.77ZM72.8587 36.7798C72.012 36.7798 71.3978 36.1572 71.3978 35.3438C71.3978 34.522 72.012 33.8994 72.8587 33.8994C73.7137 33.8994 74.3196 34.522 74.3196 35.3438C74.3196 36.1572 73.7137 36.7798 72.8587 36.7798ZM82.1789 38.332V36.1323H76.3103V34.165C77.8293 31.4673 79.4562 28.811 81.05 26.354H84.5695V34.1235H86.1301V36.1323H84.5695V38.332H82.1789ZM78.5681 34.1899H82.2287V28.2549H82.0959C80.9338 30.0396 79.6472 32.123 78.5681 34.0571V34.1899ZM90.6441 38.332V28.7197H90.4947L87.5562 30.7617V28.5039L90.6524 26.354H93.151V38.332H90.6441Z" fill="white"/>
</svg>
